# xmcd CD database file
#
# Track frame offsets:
#	182
#	11240
#	23247
#	36492
#	48240
#	68200
#	75965
#	91585
#	105885
#	118950
#	134345
#	144685
#	159005
#
# Disc length: 2430 seconds
#
# Revision: 1
# Processed by: cddbd v1.5.1PL2 Copyright (c) Steve Scherf et al.
# Submitted via: CDex 1.51
#
DISCID=9e097c0d
DTITLE=Osada Údolí dìsu, Country Band - El Dorado II
DYEAR=1993
DGENRE=Country
TTITLE0=Parnik Vysehrad
TTITLE1=Desperad
TTITLE2=V Dawsonu
TTITLE3=Az ohen velky zaplane
TTITLE4=Sanghaj
TTITLE5=Pustou savanou
TTITLE6=Osado nase mila
TTITLE7=Vandrak
TTITLE8=Jel kowboj sirou stepi
TTITLE9=Hvezdy nad osadou
TTITLE10=Madagaskar
TTITLE11=Sandy
TTITLE12=Hey, Jerry
EXTD=YEAR: 1993
EXTT0=
EXTT1=
EXTT2=
EXTT3=
EXTT4=
EXTT5=
EXTT6=
EXTT7=
EXTT8=
EXTT9=
EXTT10=
EXTT11=
EXTT12=
PLAYORDER=
